# xmcd
#
# Track frame offsets: 
#        150
#        13119
#        26299
#        39408
#        50802
#        64006
#        76361
#        88710
#        101559
#        113331
#        125854
#        137536
#        149307
#        161699
#        175823
#        187328
#        199305
#        212039
#        224561
#        236774
#        249528
#        261939
#        284181
#        296540
#        308677
#
# Disc length: 4282 seconds
#
# Revision: 0
# Processed by: cddbd v1.5.2PL0 Copyright (c) Steve Scherf et al.
# Submitted via: ExactAudioCopyFreeDBPlugin 1.0
#
DISCID=8310b819
DTITLE=Roy Acuff and The Smoky Mountain Boys - The King Of Country Music
DTITLE=Various Artist - Disc 5
DYEAR=1900
DGENRE=Country
TTITLE0=Live and Let Live
TTITLE1=Don't Make Me Go To Bed And I'll Be Good
TTITLE2=The Heart That Was Broken For Me
TTITLE3=Not A Word From Home
TTITLE4=Do You Wonder Why
TTITLE5=I'll Forgive You But I Can't Forget
TTITLE6=Blues In My Mind
TTITLE7=(I Heard A) Silver Trumpet
TTITLE8=Easy Rockin' Chair
TTITLE9=It's Too Late Now To Worry Anymore
TTITLE10=Wait For A Light To Shine
TTITLE11=Radio Station S-A-V-E-D
TTITLE12=We Planted Roses On Our Darling's Grave
TTITLE13=Money Won't Buy This Soul Of Mine
TTITLE14=No One WIll Ever Know
TTITLE15=I Think I'll Go Home And Cry
TTITLE16=We Live In Two Different Worlds
TTITLE17=Pins And Needles (In My Heart)
TTITLE18=Golden Treasure
TTITLE19=I Gambled And Lost (Take 1)
TTITLE20=I Gambled And Lost (Take 2)
TTITLE21=Let Me Be The First To Say I'm Sorry (Breakdown and Take 1)
TTITLE22=Let Me Be The First To Say I'm Sorry (Take 2)
TTITLE23=All The World Is Lonely Now (2 Breakdowns)
TTITLE24=All The World Is Lonely Now (Take)
EXTD=
EXTT0=
EXTT1=
EXTT2=
EXTT3=
EXTT4=
EXTT5=
EXTT6=
EXTT7=
EXTT8=
EXTT9=
EXTT10=
EXTT11=
EXTT12=
EXTT13=
EXTT14=
EXTT15=
EXTT16=
EXTT17=
EXTT18=
EXTT19=
EXTT20=
EXTT21=
EXTT22=
EXTT23=
EXTT24=
PLAYORDER=
